# xmcd
#
# Track frame offsets: 
#        150
#        20762
#        44038
#        63969
#        82462
#        105579
#        127513
#        152180
#        169233
#        203472
#        223320
#
# Disc length: 3541 seconds
#
# Revision: 0
# Processed by: cddbd v1.4PL0 Copyright (c) Steve Scherf et al.
# Submitted via: ExactAudioCopy v0.90b4
#
DISCID=9c0dd30b
DTITLE=Raitt and Butterfield - L,A.  09-23-73  TV Soundstage
DYEAR=1900
DGENRE=
TTITLE0=Under The Falling Sky
TTITLE1=Love Me Like A Man
TTITLE2=I'll Never Be The Same
TTITLE3=You Need To Know How
TTITLE4=Love Has No Pride
TTITLE5=New Walkin' Blues
TTITLE6=Small Town Talk
TTITLE7=Buried Alive In The Blues
TTITLE8=Broke My Baby's Heart
TTITLE9=Highway 28
TTITLE10=He's Got All The Whiskey
EXTD=
EXTT0=
EXTT1=
EXTT2=
EXTT3=
EXTT4=
EXTT5=
EXTT6=
EXTT7=
EXTT8=
EXTT9=
EXTT10=
PLAYORDER=
